Coordinates
version=1
nRows=24
nColumns=38
inDegrees=no

Units are S.I. units (second, meters, Newtons, ...)
If the header above contains a line with 'inDegrees', this indicates whether rotational values are in degrees (yes) or radians (no).

endheader
time	pelvis_tilt	pelvis_list	pelvis_rotation	pelvis_tx	pelvis_ty	pelvis_tz	hip_flexion_r	hip_adduction_r	hip_rotation_r	knee_angle_r	ankle_angle_r	subtalar_angle_r	mtp_angle_r	hip_flexion_l	hip_adduction_l	hip_rotation_l	knee_angle_l	ankle_angle_l	subtalar_angle_l	mtp_angle_l	lumbar_extension	lumbar_bending	lumbar_rotation	arm_flex_r	arm_add_r	arm_rot_r	elbow_flex_r	pro_sup_r	wrist_flex_r	wrist_dev_r	arm_flex_l	arm_add_l	arm_rot_l	elbow_flex_l	pro_sup_l	wrist_flex_l	wrist_dev_l
130	-0.27073	1.36658	-1.12378	0.853989	-0.849599	0.936535	-0.335902	0.0452286	-0.220864	0.0653009	-0.344905	0	0	-0.305821	-0.206747	-0.412509	0.116755	-0.303079	0	0	-0.232655	0.169215	-0.0649794	0.136072	-0.605625	0.815038	1.10641	0	0	0	0.165478	-0.152593	0.645186	0.459624	1.5708	0	0
130.01	-0.271324	1.36617	-1.12324	0.854052	-0.849639	0.936553	-0.335696	0.0452113	-0.221442	0.0665834	-0.344826	0	0	-0.306153	-0.206913	-0.412504	0.117035	-0.302592	0	0	-0.233552	0.16942	-0.0648614	0.136277	-0.605484	0.814649	1.10702	0	0	0	0.166015	-0.152585	0.644928	0.457976	1.5708	0	0
130.02	-0.272034	1.36565	-1.12252	0.854114	-0.849656	0.936576	-0.335186	0.0451874	-0.222393	0.0692881	-0.344145	0	0	-0.306505	-0.207246	-0.41255	0.11737	-0.302167	0	0	-0.234607	0.169688	-0.0646186	0.136633	-0.60536	0.814627	1.10755	0	0	0	0.1667	-0.152581	0.644717	0.456288	1.5708	0	0
130.03	-0.272048	1.36522	-1.12252	0.854186	-0.849646	0.93658	-0.335196	0.0451408	-0.222984	0.0704359	-0.343433	0	0	-0.306741	-0.207438	-0.412766	0.117882	-0.30178	0	0	-0.235743	0.169795	-0.0643274	0.137021	-0.605202	0.814632	1.10815	0	0	0	0.167396	-0.152565	0.644462	0.454537	1.5708	0	0
130.04	-0.271059	1.36491	-1.12361	0.854263	-0.849649	0.936571	-0.336018	0.0450364	-0.222957	0.0692532	-0.343385	0	0	-0.306954	-0.2073	-0.412983	0.118454	-0.301337	0	0	-0.236832	0.16962	-0.0640134	0.13741	-0.604884	0.814672	1.10859	0	0	0	0.167949	-0.152489	0.644023	0.452704	1.5708	0	0
130.05	-0.270191	1.36455	-1.12426	0.854345	-0.849679	0.936562	-0.33692	0.0450835	-0.223173	0.0682792	-0.34373	0	0	-0.30714	-0.207353	-0.413008	0.11904	-0.300916	0	0	-0.237794	0.169543	-0.0640208	0.137783	-0.604513	0.814941	1.10897	0	0	0	0.168485	-0.152501	0.643769	0.45073	1.5708	0	0
130.06	-0.269966	1.36406	-1.12411	0.854434	-0.84971	0.936559	-0.33753	0.0453135	-0.223921	0.0684266	-0.343753	0	0	-0.307327	-0.207769	-0.41322	0.119736	-0.300446	0	0	-0.238769	0.169674	-0.0642248	0.138178	-0.603902	0.815215	1.10911	0	0	0	0.168961	-0.152574	0.643621	0.448727	1.5708	0	0
130.07	-0.269426	1.36336	-1.12437	0.854522	-0.849741	0.936588	-0.338034	0.0454619	-0.224907	0.069429	-0.343461	0	0	-0.307722	-0.208251	-0.413542	0.120585	-0.299977	0	0	-0.239949	0.169854	-0.0644291	0.138559	-0.603253	0.815376	1.10927	0	0	0	0.169411	-0.152629	0.643371	0.446668	1.5708	0	0
130.08	-0.268192	1.36291	-1.12551	0.854602	-0.849754	0.936583	-0.338877	0.0454173	-0.225386	0.0687254	-0.34345	0	0	-0.307966	-0.208259	-0.413805	0.121434	-0.299486	0	0	-0.241014	0.169788	-0.0644443	0.138912	-0.602764	0.815584	1.10966	0	0	0	0.169875	-0.152653	0.643073	0.444571	1.5708	0	0
130.09	-0.267294	1.3625	-1.12633	0.854657	-0.849754	0.936566	-0.33978	0.0455054	-0.225458	0.0677229	-0.343768	0	0	-0.308208	-0.208342	-0.414027	0.12205	-0.299002	0	0	-0.242078	0.169718	-0.0643587	0.139216	-0.602342	0.815852	1.11007	0	0	0	0.170339	-0.152665	0.642771	0.44237	1.5708	0	0
130.1	-0.265755	1.36183	-1.12796	0.85467	-0.849759	0.936618	-0.340894	0.0456104	-0.225571	0.067249	-0.344168	0	0	-0.308429	-0.208826	-0.41463	0.123733	-0.298441	0	0	-0.243488	0.169517	-0.0641234	0.139632	-0.601853	0.816203	1.11037	0	0	0	0.170839	-0.152722	0.6425	0.440159	1.5708	0	0
130.11	-0.258408	1.35543	-1.13429	0.854842	-0.849341	0.936953	-0.347869	0.0472432	-0.227322	0.067046	-0.344736	0	0	-0.315125	-0.210223	-0.415302	0.123579	-0.297382	0	0	-0.251848	0.171592	-0.0647039	0.142175	-0.603198	0.81729	1.11363	0	0	0	0.172338	-0.153589	0.642137	0.440637	1.5708	0	0
130.12	-0.26468	1.35985	-1.1289	0.85484	-0.849711	0.936719	-0.34255	0.0459831	-0.226733	0.0686577	-0.344734	0	0	-0.310916	-0.208838	-0.414201	0.122654	-0.297247	0	0	-0.246891	0.170212	-0.0637074	0.140424	-0.601948	0.816926	1.11204	0	0	0	0.171967	-0.152589	0.642175	0.436151	1.5708	0	0
130.13	-0.266617	1.36012	-1.12717	0.854907	-0.849743	0.936661	-0.341928	0.0459731	-0.226437	0.0689523	-0.344692	0	0	-0.310534	-0.208909	-0.414466	0.122745	-0.297017	0	0	-0.246875	0.170353	-0.0634456	0.140552	-0.601575	0.817358	1.11194	0	0	0	0.172153	-0.1523	0.64182	0.433759	1.5708	0	0
130.14	-0.267436	1.3601	-1.12633	0.854964	-0.84977	0.936625	-0.341635	0.0459932	-0.226588	0.0696933	-0.344514	0	0	-0.310466	-0.209107	-0.414456	0.122874	-0.296894	0	0	-0.247186	0.170478	-0.0634714	0.140636	-0.601033	0.817584	1.1118	0	0	0	0.172411	-0.152173	0.64164	0.431476	1.5708	0	0
130.15	-0.268023	1.36017	-1.12584	0.855034	-0.849779	0.936562	-0.34143	0.0458974	-0.22646	0.0698459	-0.344309	0	0	-0.310323	-0.209234	-0.414689	0.123053	-0.29671	0	0	-0.247467	0.170631	-0.0633583	0.140766	-0.600675	0.817956	1.11178	0	0	0	0.172768	-0.151881	0.641762	0.429021	1.5708	0	0
130.16	-0.267986	1.35985	-1.12582	0.855095	-0.849819	0.936566	-0.341386	0.0457971	-0.226749	0.0708106	-0.344053	0	0	-0.31048	-0.209475	-0.414877	0.123633	-0.296416	0	0	-0.248162	0.170789	-0.0631465	0.140973	-0.600373	0.818763	1.11159	0	0	0	0.173252	-0.15156	0.642222	0.426444	1.5708	0	0
130.17	-0.266946	1.35989	-1.12603	0.855154	-0.849989	0.936536	-0.342446	0.0471979	-0.234334	0.0652214	-0.336759	0	0	-0.31035	-0.209677	-0.414501	0.124102	-0.296026	0	0	-0.248144	0.170486	-0.0637072	0.140684	-0.599638	0.819355	1.11113	0	0	0	0.173102	-0.152045	0.64198	0.42534	1.5708	0	0
130.18	-0.268274	1.3603	-1.12481	0.85521	-0.849987	0.936514	-0.341538	0.0461026	-0.227773	0.0700032	-0.341888	0	0	-0.309704	-0.209636	-0.414243	0.124288	-0.29565	0	0	-0.248165	0.170535	-0.0635074	0.141091	-0.599174	0.820244	1.11055	0	0	0	0.173261	-0.152108	0.64138	0.424025	1.5708	0	0
130.19	-0.269358	1.36006	-1.12367	0.855275	-0.850013	0.936534	-0.340835	0.0460338	-0.228104	0.0718923	-0.343183	0	0	-0.309718	-0.209994	-0.414461	0.124651	-0.295413	0	0	-0.248671	0.170923	-0.0635492	0.141642	-0.59876	0.82137	1.11005	0	0	0	0.17332	-0.152084	0.640917	0.422605	1.5708	0	0
130.2	-0.2692	1.35992	-1.12402	0.855332	-0.85004	0.936533	-0.340802	0.0458367	-0.228258	0.0723672	-0.343501	0	0	-0.309805	-0.209991	-0.414727	0.12509	-0.295113	0	0	-0.249175	0.171044	-0.063461	0.142247	-0.59852	0.822611	1.10975	0	0	0	0.173279	-0.15209	0.640685	0.421391	1.5708	0	0
130.21	-0.266727	1.35894	-1.1262	0.855374	-0.850152	0.936629	-0.342009	0.046872	-0.235843	0.0687209	-0.335902	0	0	-0.310468	-0.210611	-0.415918	0.127042	-0.294779	0	0	-0.25063	0.171015	-0.0634328	0.142516	-0.598209	0.823507	1.10954	0	0	0	0.173222	-0.152579	0.640494	0.421106	1.5708	0	0
130.22	-0.267273	1.35928	-1.12603	0.855439	-0.850117	0.936616	-0.341341	0.0454942	-0.228364	0.0732232	-0.341179	0	0	-0.309774	-0.210485	-0.416697	0.128019	-0.294566	0	0	-0.250996	0.171022	-0.062846	0.142928	-0.598141	0.823873	1.10927	0	0	0	0.173329	-0.152778	0.639912	0.420924	1.5708	0	0
130.23	-0.268255	1.35905	-1.12439	0.855555	-0.850247	0.936583	-0.34125	0.0468438	-0.235786	0.0701805	-0.33534	0	0	-0.310488	-0.210594	-0.416335	0.126569	-0.294554	0	0	-0.250829	0.171498	-0.0639106	0.143277	-0.597738	0.824135	1.10884	0	0	0	0.172687	-0.153214	0.639233	0.420835	1.5708	0	0
